<?xml version="1.0" encoding="utf-8"?>
<!-- Generator: Adobe Illustrator 24.2.1, SVG Export Plug-In . SVG Version: 6.00 Build 0)  -->
<svg version="1.1" id="Layer_2" xmlns="http://www.w3.org/2000/svg" xmlns:xlink="http://www.w3.org/1999/xlink" x="0px" y="0px"
	 viewBox="0 0 1223.97 1130.05" style="enable-background:new 0 0 1223.97 1130.05;" xml:space="preserve">
<style type="text/css">
	.st0{fill:#EF7959;}
	.st1{fill:#C24F3D;}
	.st2{opacity:0.23;fill:#C24F3D;}
	.st3{fill:#3F3D3D;}
	.st4{fill:#EFE9E8;stroke:#020304;stroke-width:0.5117;stroke-miterlimit:10;}
	.st5{fill:#DFC0DD;}
	.st6{fill:none;stroke:#B591B4;stroke-miterlimit:10;}
	.st7{fill:#B591B4;}
	.st8{fill:#B591B4;stroke:#FFFFFF;stroke-width:0.5;stroke-miterlimit:10;}
	.st9{fill:#EFBDAC;}
	.st10{fill:#FFFFFF;}
	.st11{fill:none;stroke:#FFFFFF;stroke-width:3;stroke-miterlimit:10;}
	.st12{fill:none;stroke:#FFFFFF;stroke-width:2.867;stroke-miterlimit:10;}
	.st13{fill:#E0C0DD;}
</style>
<rect x="0" y="0" class="st0" width="1223.97" height="1130.05"/>
<g>
	<path class="st1" d="M1024.79,755.8"/>
	<path class="st2" d="M996.4,885.9c-25.37-12.98-15.77-135.93,40.22-151.4c22.98-6.35,55.07,5.05,63.87,26.02
		C1120.1,807.27,1023.13,899.58,996.4,885.9z"/>
	<path class="st2" d="M475.94,149.34c-40.21,18.27-97.34-34.2-92.26-63.87c5.58-32.55,89.65-58.83,115.92-28.39
		C519.04,79.61,508.09,134.73,475.94,149.34z"/>
	<circle class="st2" cx="1093.63" cy="162.22" r="39.34"/>
	<circle class="st2" cx="880.65" cy="1019.41" r="68.75"/>
	<circle class="st2" cx="435.42" cy="1003.05" r="22.6"/>
	<circle class="st2" cx="100.22" cy="798.55" r="50.17"/>
	<path class="st2" d="M376.61,916.66C158.81,797.57,97.16,467.54,192.09,374.93c64.92-63.33,161.08,23.32,314.63-47.31
		c132.36-60.89,126.47-155.44,238.93-193.98c124.59-42.7,299.51,16.73,369.04,127.74c115.68,184.72-64.5,506.06-300,630.32
		C782.6,908.64,568.53,1021.6,376.61,916.66z"/>
</g>
<g>
	<path class="st3" d="M741.89,918.91h-221.5c-8.88,0-16.07-7.2-16.07-16.07V444.82c0-8.88,7.2-16.07,16.07-16.07h221.5
		c8.88,0,16.07,7.2,16.07,16.07v458.01C757.97,911.71,750.77,918.91,741.89,918.91z"/>
	<path class="st4" d="M734.6,878.02H527.68c-5.34,0-9.66-4.33-9.66-9.66V466.38c0-9.66,7.83-17.49,17.49-17.49h191.27
		c9.66,0,17.49,7.83,17.49,17.49v401.97C744.27,873.69,739.94,878.02,734.6,878.02z"/>
</g>
<g>
	<path class="st1" d="M464.32,279.65c0,3.59-0.18,7.14-0.53,10.64c-0.19,1.86-0.42,3.7-0.71,5.53
		c-6.72,43.55-40.22,78.27-83.14,86.83c-0.05,0.01-0.09,0.02-0.14,0.03c-6.64,1.31-13.49,2-20.51,2
		c-58,0-105.03-47.03-105.03-105.03s47.03-105.03,105.03-105.03C417.29,174.62,464.32,221.65,464.32,279.65z"/>
	<g>
		<g>
			<path class="st5" d="M293.96,279.69c0-3,6.73-5.49,7.14-8.37c0.42-2.96-5.34-7.23-4.51-10.04c0.84-2.86,8-3.34,9.22-6.01
				c1.23-2.7-3.08-8.43-1.48-10.91c1.6-2.49,8.61-0.94,10.54-3.16c1.94-2.23-0.59-8.95,1.64-10.88c2.23-1.93,8.52,1.52,11.01-0.08
				c2.47-1.59,1.93-8.75,4.63-9.98c2.67-1.22,7.72,3.87,10.58,3.03c2.81-0.82,4.31-7.84,7.27-8.26c2.89-0.41,6.3,5.9,9.3,5.9
				c3,0,6.41-6.31,9.3-5.9c2.96,0.42,4.46,7.44,7.27,8.26c2.86,0.84,7.91-4.25,10.58-3.03c2.7,1.23,2.16,8.39,4.63,9.98
				c2.49,1.6,8.78-1.85,11.01,0.08c2.23,1.94-0.3,8.65,1.64,10.88c1.93,2.23,8.94,0.68,10.54,3.16c1.59,2.47-2.72,8.21-1.48,10.91
				c1.22,2.67,8.38,3.16,9.22,6.01c0.82,2.81-4.93,7.08-4.51,10.04c0.41,2.89,7.14,5.37,7.14,8.37c0,3-6.73,5.49-7.14,8.37
				c-0.42,2.96,5.34,7.23,4.51,10.04c-0.84,2.86-8,3.34-9.22,6.01c-1.23,2.7,3.08,8.43,1.48,10.91c-1.6,2.49-8.61,0.94-10.54,3.16
				c-1.94,2.23,0.59,8.95-1.64,10.88c-2.23,1.93-8.52-1.52-11.01,0.08c-2.47,1.59-1.93,8.75-4.63,9.98
				c-2.67,1.22-7.72-3.87-10.58-3.03c-2.81,0.82-4.31,7.84-7.27,8.26c-2.89,0.41-6.3-5.9-9.3-5.9c-3,0-6.41,6.31-9.3,5.9
				c-2.96-0.42-4.46-7.44-7.27-8.26c-2.86-0.84-7.91,4.25-10.58,3.03c-2.7-1.23-2.16-8.39-4.63-9.98c-2.49-1.6-8.78,1.85-11.01-0.08
				c-2.23-1.94,0.3-8.65-1.64-10.88c-1.93-2.23-8.94-0.68-10.54-3.16c-1.59-2.47,2.72-8.21,1.48-10.91
				c-1.22-2.67-8.38-3.16-9.22-6.01c-0.82-2.81,4.93-7.08,4.51-10.04C300.69,285.18,293.96,282.69,293.96,279.69z"/>
		</g>
		<g>
			<path class="st6" d="M302.43,279.69c0-2.61,5.86-4.78,6.22-7.29c0.37-2.57-4.64-6.29-3.93-8.74c0.73-2.49,6.96-2.91,8.02-5.23
				c1.07-2.35-2.68-7.34-1.29-9.49c1.4-2.17,7.49-0.81,9.18-2.75c1.69-1.94-0.52-7.79,1.43-9.47c1.94-1.68,7.41,1.32,9.58-0.07
				c2.15-1.39,1.68-7.62,4.03-8.69c2.32-1.06,6.72,3.36,9.21,2.64c2.44-0.72,3.75-6.82,6.33-7.19c2.51-0.36,5.48,5.13,8.09,5.13
				c2.61,0,5.58-5.49,8.09-5.13c2.57,0.37,3.88,6.47,6.33,7.19c2.49,0.73,6.89-3.7,9.21-2.64c2.35,1.07,1.88,7.3,4.03,8.69
				c2.17,1.4,7.64-1.61,9.58,0.07c1.94,1.69-0.26,7.53,1.43,9.47c1.68,1.94,7.78,0.59,9.18,2.75c1.39,2.15-2.37,7.14-1.29,9.49
				c1.06,2.32,7.3,2.75,8.02,5.23c0.72,2.44-4.3,6.16-3.93,8.74c0.36,2.51,6.22,4.68,6.22,7.29c0,2.61-5.86,4.78-6.22,7.29
				c-0.37,2.57,4.64,6.29,3.93,8.74c-0.73,2.49-6.96,2.91-8.02,5.23c-1.07,2.35,2.68,7.34,1.29,9.49c-1.4,2.17-7.49,0.81-9.18,2.75
				c-1.69,1.94,0.52,7.79-1.43,9.47c-1.94,1.68-7.41-1.32-9.58,0.07c-2.15,1.39-1.68,7.62-4.03,8.69c-2.32,1.06-6.72-3.36-9.21-2.64
				c-2.44,0.72-3.75,6.82-6.33,7.19c-2.51,0.36-5.48-5.13-8.09-5.13c-2.61,0-5.58,5.49-8.09,5.13c-2.57-0.37-3.88-6.47-6.33-7.19
				c-2.49-0.73-6.89,3.7-9.21,2.64c-2.35-1.07-1.88-7.3-4.03-8.69c-2.17-1.4-7.64,1.61-9.58-0.07c-1.94-1.69,0.26-7.53-1.43-9.47
				c-1.68-1.94-7.78-0.59-9.18-2.75c-1.39-2.15,2.37-7.14,1.29-9.49c-1.06-2.32-7.3-2.75-8.02-5.23c-0.72-2.44,4.3-6.16,3.93-8.74
				C308.29,284.46,302.43,282.3,302.43,279.69z"/>
		</g>
		<g>
			<path class="st1" d="M357,272.1c0,5.97-3.55,9.06-7.31,9.06c-4.41,0-7.26-3.84-7.26-8.63c0-4.65,2.66-8.94,7.42-8.94
				C354.78,263.58,357,267.84,357,272.1z M347.6,272.37c-0.02,3.1,0.73,4.78,2.19,4.78c1.33,0,2.02-1.52,2.02-4.77
				c0-2.93-0.56-4.81-2.06-4.81C348.26,267.58,347.6,269.4,347.6,272.37z M349.69,293.03l15.44-29.45h3.7l-15.42,29.45H349.69z
				 M376.13,283.89c0,5.97-3.55,9.08-7.32,9.08c-4.41,0-7.26-3.87-7.26-8.66c0-4.66,2.66-8.97,7.42-8.97
				C373.91,275.35,376.13,279.63,376.13,283.89z M366.73,284.16c-0.02,3.1,0.73,4.81,2.19,4.81c1.33,0,2.02-1.54,2.02-4.79
				c0-2.93-0.56-4.83-2.06-4.83C367.39,279.35,366.73,281.19,366.73,284.16z"/>
		</g>
	</g>
</g>
<path class="st7" d="M690.7,663.45c0-32.87-26.72-59.62-59.56-59.62c-32.84,0-59.56,26.75-59.56,59.62
	c0,32.89,26.72,59.63,59.56,59.63C663.98,723.07,690.7,696.33,690.7,663.45z M580.21,667.67h17.97c0.42,6.18,1.55,12.33,3.38,18.31
	h-16.29C582.5,680.37,580.75,674.2,580.21,667.67z M682.07,659.23h-17.84c-0.23-6.42-1.22-12.82-2.98-19.02h15.4
	C679.62,646,681.51,652.42,682.07,659.23z M655.8,659.23h-20.44v-19.02h17.08C654.42,646.38,655.54,652.78,655.8,659.23z
	 M635.36,631.76v-19.29c0.08,0,0.17,0,0.26,0.01c5.7,5.78,10.2,12.3,13.5,19.28H635.36z M626.92,612.47v19.29h-13.77
	c3.29-6.98,7.79-13.5,13.5-19.28C626.75,612.47,626.83,612.47,626.92,612.47z M626.92,640.21v19.02h-20.45
	c0.26-6.45,1.38-12.84,3.36-19.02H626.92z M598.03,659.23h-17.82c0.56-6.8,2.45-13.23,5.41-19.02H601
	C599.24,646.41,598.26,652.81,598.03,659.23z M606.63,667.67h20.3v18.31h-16.48C608.38,680.02,607.11,673.87,606.63,667.67z
	 M626.92,694.43v18.41c-5.38-5.59-9.68-11.8-12.94-18.41H626.92z M635.36,694.43h12.93c-3.26,6.6-7.57,12.81-12.93,18.4V694.43z
	 M635.36,685.98v-18.31h20.28c-0.48,6.2-1.75,12.35-3.81,18.31H635.36z M664.09,667.67h17.99c-0.54,6.53-2.3,12.7-5.05,18.31H660.7
	C662.54,680,663.67,673.85,664.09,667.67z M671.24,631.76h-12.91c-2.32-5.64-5.31-11.06-8.99-16.12
	C658.02,618.96,665.56,624.58,671.24,631.76z M612.91,615.65c-3.67,5.06-6.67,10.47-8.98,16.11h-12.88
	C596.71,624.6,604.25,618.97,612.91,615.65z M590.49,694.43h14.19c2.67,6.17,6.13,12.09,10.38,17.59
	C605.21,708.74,596.67,702.55,590.49,694.43z M647.2,712.03c4.26-5.5,7.73-11.43,10.39-17.6h14.2
	C665.61,702.55,657.07,708.75,647.2,712.03z"/>
<g>
	<circle class="st1" cx="1052.12" cy="511.86" r="105.03"/>
	<g>
		<path class="st5" d="M978.67,483.6h146.91c2.45,0,4.43,1.99,4.43,4.43v47.64c0,2.45-1.99,4.43-4.43,4.43H978.67
			c-2.45,0-4.43-1.99-4.43-4.43v-47.64C974.23,485.59,976.22,483.6,978.67,483.6z"/>
		<g>
			<polygon class="st1" points="990.43,489.18 988.78,494.18 983.42,494.18 987.75,497.27 986.1,502.26 990.43,499.18 
				994.77,502.26 993.11,497.27 997.45,494.18 992.09,494.18 			"/>
			<polygon class="st1" points="1010.62,489.18 1008.97,494.18 1003.61,494.18 1007.94,497.27 1006.29,502.26 1010.62,499.18 
				1014.96,502.26 1013.3,497.27 1017.64,494.18 1012.28,494.18 			"/>
			<polygon class="st1" points="1030,489.18 1028.34,494.18 1022.99,494.18 1027.32,497.27 1025.67,502.26 1030,499.18 
				1034.33,502.26 1032.68,497.27 1037.01,494.18 1031.66,494.18 			"/>
			<polygon class="st1" points="1050.19,489.18 1048.53,494.18 1043.18,494.18 1047.51,497.27 1045.86,502.26 1050.19,499.18 
				1054.52,502.26 1052.87,497.27 1057.2,494.18 1051.85,494.18 			"/>
			<polygon class="st1" points="1070.38,489.18 1068.72,494.18 1063.37,494.18 1067.7,497.27 1066.05,502.26 1070.38,499.18 
				1074.71,502.26 1073.06,497.27 1077.39,494.18 1072.04,494.18 			"/>
		</g>
		<g>
			<rect x="983.42" y="526.78" class="st7" width="79.95" height="3.47"/>
			<rect x="983.42" y="517.39" class="st7" width="93.24" height="3.47"/>
			<rect x="983.42" y="508.18" class="st7" width="93.24" height="3.68"/>
		</g>
	</g>
	<g>
		<ellipse class="st8" cx="1100.5" cy="512.5" rx="17.42" ry="18.51"/>
		<g>
			<path class="st0" d="M1100.91,496.36c0,0,8.5,0.11,7.05,10.86s2.91,10.06,2.74,11.72c-0.16,1.66-2.51,3.2-2.51,3.2h-8.2
				l0.22-25.79H1100.91z"/>
			<path class="st0" d="M1100,496.36c0,0-8.5,0.11-7.05,10.86s-2.91,10.06-2.74,11.72c0.16,1.66,2.51,3.2,2.51,3.2h8.2l-0.22-25.79
				H1100z"/>
			<path class="st3" d="M1109.92,517.1v7.37c0,0.25-0.04,0.5-0.11,0.73c0,0,0,0,0,0c-0.43,0.27-0.86,0.52-1.31,0.75
				c-0.36,0.18-0.72,0.36-1.09,0.52l-0.65,0.26c-1.95,0.76-4.06,1.17-6.26,1.17c-2.31,0-4.51-0.45-6.53-1.28
				c-0.42-0.17-0.84-0.36-1.25-0.56c-0.17-0.09-0.34-0.17-0.51-0.26c-0.39-0.21-0.76-0.43-1.13-0.67l0-0.44c0-0.04,0-0.07,0-0.12
				v-7.37c0-1.35,1.03-2.44,2.3-2.44c0.03,0,0.07,0,0.1,0c0.43,0.02,0.83,0.16,1.17,0.4h11.55c0.39-0.32,0.88-0.52,1.41-0.52
				c0.16,0,0.31,0.02,0.46,0.05c0.45,0.09,0.85,0.33,1.17,0.67C1109.66,515.82,1109.92,516.43,1109.92,517.1z"/>
			<ellipse class="st9" cx="1100.5" cy="504.94" rx="7.12" ry="7.56"/>
			<rect x="1098.33" y="511.36" class="st9" width="4.35" height="5.3"/>
			<path class="st10" d="M1104.12,507.11c0.19,3.24-3.61,3.2-3.61,3.2s-3.8,0.05-3.61-3.2H1104.12z"/>
			<path class="st3" d="M1097.49,517.06h6.03v-1.88c-0.7,0.24-1.75,0.51-3.05,0.51c-1.26-0.01-2.29-0.27-2.98-0.51
				C1097.49,515.8,1097.49,516.43,1097.49,517.06z"/>
			<path class="st0" d="M1093.39,502.67l14.23,0.27c-1.02-3.26-3.45-5.63-6.24-6.03c-1.34-0.19-3.23,0.01-4.84,1.16
				c-1.12,0.8-1.8,1.83-2.07,2.25C1093.89,501.21,1093.57,502.06,1093.39,502.67z"/>
		</g>
	</g>
</g>
<g>
	<path class="st1" d="M316.09,511.22c0,1.21-0.02,2.41-0.07,3.61c-1.39,41.24-26.56,76.46-62.23,92.36
		c-13.05,5.82-27.51,9.06-42.73,9.06c-58,0-105.02-47.03-105.02-105.03s47.02-105.03,105.02-105.03
		C269.07,406.19,316.09,453.22,316.09,511.22z"/>
	<g>
		<path class="st5" d="M211.11,564.46l31.77-46.48l-0.03-0.02c4.19-6.15,6.63-13.58,6.63-21.57c0-21.21-17.2-38.41-38.41-38.41
			c-21.21,0-38.41,17.2-38.41,38.41c0,8.01,2.45,15.44,6.65,21.6h-0.01l31.76,46.48"/>
		<circle class="st1" cx="211.07" cy="494.9" r="17.6"/>
	</g>
</g>
<g>
	<g>
		<line class="st11" x1="413.13" y1="556.19" x2="438.51" y2="556.19"/>
		<line class="st11" x1="453.61" y1="556.19" x2="478.99" y2="556.19"/>
		<line class="st11" x1="358.29" y1="556.19" x2="332.91" y2="556.19"/>
		<line class="st11" x1="373.4" y1="556.19" x2="398.77" y2="556.19"/>
	</g>
	<g>
		<line class="st11" x1="627.59" y1="388.79" x2="627.59" y2="414.16"/>
		<line class="st11" x1="627.59" y1="333.95" x2="627.59" y2="308.57"/>
		<line class="st11" x1="627.59" y1="349.05" x2="627.59" y2="374.43"/>
	</g>
	<g>
		<line class="st11" x1="859.97" y1="556.19" x2="885.35" y2="556.19"/>
		<line class="st11" x1="900.45" y1="556.19" x2="925.83" y2="556.19"/>
		<line class="st11" x1="805.13" y1="556.19" x2="779.76" y2="556.19"/>
		<line class="st11" x1="820.24" y1="556.19" x2="845.62" y2="556.19"/>
	</g>
	<g>
		<line class="st12" x1="486.33" y1="411.76" x2="503.32" y2="426.14"/>
		<line class="st12" x1="434.16" y1="367.57" x2="451.14" y2="381.96"/>
		<line class="st12" x1="459.67" y1="389.17" x2="476.65" y2="403.56"/>
	</g>
	<g>
		<line class="st12" x1="775.85" y1="415.38" x2="758.86" y2="429.76"/>
		<line class="st12" x1="828.03" y1="371.19" x2="811.04" y2="385.57"/>
		<line class="st12" x1="802.52" y1="392.79" x2="785.53" y2="407.18"/>
	</g>
</g>
<g>
	<circle class="st1" cx="895.88" cy="279.69" r="105.03"/>
	<g>
		<g>
			<path class="st7" d="M893.61,229.17l-35.42,27.56h72.89l-35.42-27.56C895.06,228.7,894.21,228.7,893.61,229.17z"/>
			<polygon class="st7" points="852.23,262.87 858.19,256.73 858.06,267.52 			"/>
			<polygon class="st7" points="939.19,262.87 931.08,256.73 930.79,269.57 			"/>
		</g>
		<rect x="855.72" y="236.5" class="st0" width="79.26" height="62.04"/>
		<rect x="860.73" y="241.2" class="st1" width="70.76" height="62.04"/>
		<g>
			<path class="st5" d="M892.72,295.18l-40.49-32.32v67.7l40.49-32.32C893.7,297.46,893.7,295.97,892.72,295.18z"/>
			<path class="st5" d="M898.7,295.18l40.49-32.32v67.7l-40.49-32.32C897.72,297.46,897.72,295.97,898.7,295.18z"/>
			<path class="st7" d="M894.75,294.17l-42.06,36.39h86.85l-42.06-36.39C896.7,293.49,895.53,293.49,894.75,294.17z"/>
		</g>
		<g>
			<rect x="867.35" y="249.16" class="st13" width="57.7" height="2.88"/>
			<rect x="867.35" y="256.73" class="st13" width="57.7" height="2.88"/>
			<rect x="867.35" y="264.29" class="st13" width="57.7" height="2.88"/>
		</g>
	</g>
</g>
<g>
	<circle class="st1" cx="629.21" cy="188.96" r="105.03"/>
	<g>
		<path class="st5" d="M674.97,245.97H584.8c-2.5,0-4.44-1.96-4.13-4.17l11.87-85.64h74.7l11.88,85.64
			C679.42,244.02,677.48,245.97,674.97,245.97z"/>
		<circle class="st1" cx="604.3" cy="168.51" r="3.49"/>
		<circle class="st1" cx="656.54" cy="168.51" r="3.49"/>
		<path class="st6" d="M604.3,168.51c-0.38-28.98,14.58-48.64,25.61-48.76c11.09-0.13,26.65,19.4,26.62,48.76"/>
		<path class="st1" d="M619.12,200.27V188.5l5.95,3.17v5.3l7.87,0l6.04,3.3H619.12z M634.55,196v-7.5l6.11,3.09v7.96L634.55,196z
			 M634.55,210.38v-5.26l-7.93-0.01c0.01,0.03-6.14-3.35-6.14-3.35l20.19,0.09v11.77L634.55,210.38z M619.12,210.38l0-7.69
			l5.95,3.46v7.32L619.12,210.38z"/>
	</g>
</g>
</svg>
