<?xml version="1.0" encoding="utf-8"?>
<!-- Generator: Adobe Illustrator 19.0.0, SVG Export Plug-In . SVG Version: 6.00 Build 0)  -->
<svg version="1.1" id="Layer_1" xmlns="http://www.w3.org/2000/svg" xmlns:xlink="http://www.w3.org/1999/xlink" x="0px" y="0px"
	 viewBox="0 0 1400 980" style="enable-background:new 0 0 1400 980;" xml:space="preserve">
<style type="text/css">
	.st0{fill:#F8DF59;}
	.st1{fill:#EFB456;}
	.st2{fill:#FFF2BD;}
	.st3{fill:#F9F9F9;}
	.st4{fill:#E0E0E0;}
	.st5{fill:#EFEEED;}
	.st6{fill:#EFAC8E;}
	.st7{fill:#F9BC9B;}
	.st8{fill:#F7CCB0;}
	.st9{fill:#FCD8C5;}
	.st10{fill:none;}
	.st11{fill:#5B3F34;}
	.st12{fill:#48E588;}
	.st13{fill:#17C168;}
	.st14{fill:#FFFFFF;}
	.st15{fill:#0DA351;}
</style>
<g id="XMLID_208_">
	<g id="XMLID_207_">
		<g id="XMLID_205_">
			<g id="XMLID_54_">
				<g id="XMLID_53_">
					<g id="XMLID_65_">
						<g id="XMLID_66_">
							<rect id="XMLID_735_" x="1089.5" y="660.1" class="st0" width="52.8" height="16.2"/>
						</g>
						<g id="XMLID_67_">
							<rect id="XMLID_733_" x="1142.3" y="660.1" class="st0" width="52.8" height="16.2"/>
						</g>
					</g>
					<g id="XMLID_55_">
						<rect id="XMLID_730_" x="1089.5" y="676.3" class="st1" width="105.6" height="5.2"/>
					</g>
				</g>
				<g id="XMLID_52_">
					<g id="XMLID_51_">
						<rect id="XMLID_727_" x="1190.2" y="660.1" class="st1" width="4.9" height="16.2"/>
					</g>
					<g id="XMLID_56_">
						<rect id="XMLID_725_" x="1179.3" y="660.1" class="st1" width="4.9" height="16.2"/>
					</g>
					<g id="XMLID_57_">
						<rect id="XMLID_723_" x="1168.5" y="660.1" class="st1" width="4.9" height="16.2"/>
					</g>
					<g id="XMLID_58_">
						<rect id="XMLID_721_" x="1157.6" y="660.1" class="st1" width="4.9" height="16.2"/>
					</g>
				</g>
				<g id="XMLID_60_">
					<g id="XMLID_64_">
						<rect id="XMLID_718_" x="1122" y="660.1" class="st2" width="4.9" height="16.2"/>
					</g>
					<g id="XMLID_63_">
						<rect id="XMLID_716_" x="1111.2" y="660.1" class="st2" width="4.9" height="16.2"/>
					</g>
					<g id="XMLID_62_">
						<rect id="XMLID_714_" x="1100.3" y="660.1" class="st2" width="4.9" height="16.2"/>
					</g>
					<g id="XMLID_61_">
						<rect id="XMLID_712_" x="1089.5" y="660.1" class="st2" width="4.9" height="16.2"/>
					</g>
				</g>
			</g>
			<g id="XMLID_68_">
				<g id="XMLID_79_">
					<g id="XMLID_81_">
						<g id="XMLID_83_">
							<rect id="XMLID_708_" x="1084.6" y="638.7" class="st0" width="52.8" height="16.2"/>
						</g>
						<g id="XMLID_82_">
							<rect id="XMLID_706_" x="1137.4" y="638.7" class="st0" width="52.8" height="16.2"/>
						</g>
					</g>
					<g id="XMLID_80_">
						<rect id="XMLID_703_" x="1084.6" y="654.9" class="st1" width="105.6" height="5.2"/>
					</g>
				</g>
				<g id="XMLID_74_">
					<g id="XMLID_78_">
						<rect id="XMLID_700_" x="1185.3" y="638.7" class="st1" width="4.9" height="16.2"/>
					</g>
					<g id="XMLID_77_">
						<rect id="XMLID_698_" x="1174.4" y="638.7" class="st1" width="4.9" height="16.2"/>
					</g>
					<g id="XMLID_76_">
						<rect id="XMLID_696_" x="1163.6" y="638.7" class="st1" width="4.9" height="16.2"/>
					</g>
					<g id="XMLID_75_">
						<rect id="XMLID_694_" x="1152.7" y="638.7" class="st1" width="4.9" height="16.2"/>
					</g>
				</g>
				<g id="XMLID_69_">
					<g id="XMLID_73_">
						<rect id="XMLID_691_" x="1117.1" y="638.7" class="st2" width="4.9" height="16.2"/>
					</g>
					<g id="XMLID_72_">
						<rect id="XMLID_689_" x="1106.3" y="638.7" class="st2" width="4.9" height="16.2"/>
					</g>
					<g id="XMLID_71_">
						<rect id="XMLID_687_" x="1095.4" y="638.7" class="st2" width="4.9" height="16.2"/>
					</g>
					<g id="XMLID_70_">
						<rect id="XMLID_685_" x="1084.6" y="638.7" class="st2" width="4.9" height="16.2"/>
					</g>
				</g>
			</g>
			<g id="XMLID_100_">
				<g id="XMLID_111_">
					<g id="XMLID_113_">
						<g id="XMLID_115_">
							<rect id="XMLID_681_" x="1085.2" y="702.9" class="st0" width="52.8" height="16.2"/>
						</g>
						<g id="XMLID_114_">
							<rect id="XMLID_679_" x="1138" y="702.9" class="st0" width="52.8" height="16.2"/>
						</g>
					</g>
					<g id="XMLID_112_">
						<rect id="XMLID_676_" x="1085.2" y="719.1" class="st1" width="105.6" height="5.2"/>
					</g>
				</g>
				<g id="XMLID_106_">
					<g id="XMLID_110_">
						<rect id="XMLID_673_" x="1185.9" y="702.9" class="st1" width="4.9" height="16.2"/>
					</g>
					<g id="XMLID_109_">
						<rect id="XMLID_671_" x="1175.1" y="702.9" class="st1" width="4.9" height="16.2"/>
					</g>
					<g id="XMLID_108_">
						<rect id="XMLID_669_" x="1164.2" y="702.9" class="st1" width="4.9" height="16.2"/>
					</g>
					<g id="XMLID_107_">
						<rect id="XMLID_667_" x="1153.4" y="702.9" class="st1" width="4.9" height="16.2"/>
					</g>
				</g>
				<g id="XMLID_101_">
					<g id="XMLID_105_">
						<rect id="XMLID_664_" x="1117.8" y="702.9" class="st2" width="4.9" height="16.2"/>
					</g>
					<g id="XMLID_104_">
						<rect id="XMLID_662_" x="1106.9" y="702.9" class="st2" width="4.9" height="16.2"/>
					</g>
					<g id="XMLID_103_">
						<rect id="XMLID_660_" x="1096.1" y="702.9" class="st2" width="4.9" height="16.2"/>
					</g>
					<g id="XMLID_102_">
						<rect id="XMLID_658_" x="1085.2" y="702.9" class="st2" width="4.9" height="16.2"/>
					</g>
				</g>
			</g>
			<g id="XMLID_116_">
				<g id="XMLID_127_">
					<g id="XMLID_129_">
						<g id="XMLID_131_">
							<rect id="XMLID_654_" x="1074.4" y="724.2" class="st0" width="52.8" height="16.2"/>
						</g>
						<g id="XMLID_130_">
							<rect id="XMLID_652_" x="1127.2" y="724.2" class="st0" width="52.8" height="16.2"/>
						</g>
					</g>
					<g id="XMLID_128_">
						<rect id="XMLID_649_" x="1074.4" y="740.4" class="st1" width="105.6" height="5.2"/>
					</g>
				</g>
				<g id="XMLID_122_">
					<g id="XMLID_126_">
						<rect id="XMLID_646_" x="1175.1" y="724.2" class="st1" width="4.9" height="16.2"/>
					</g>
					<g id="XMLID_125_">
						<rect id="XMLID_644_" x="1164.2" y="724.2" class="st1" width="4.9" height="16.2"/>
					</g>
					<g id="XMLID_124_">
						<rect id="XMLID_642_" x="1153.4" y="724.2" class="st1" width="4.9" height="16.2"/>
					</g>
					<g id="XMLID_123_">
						<rect id="XMLID_640_" x="1142.5" y="724.2" class="st1" width="4.9" height="16.2"/>
					</g>
				</g>
				<g id="XMLID_117_">
					<g id="XMLID_121_">
						<rect id="XMLID_637_" x="1106.9" y="724.2" class="st2" width="4.9" height="16.2"/>
					</g>
					<g id="XMLID_120_">
						<rect id="XMLID_635_" x="1096.1" y="724.2" class="st2" width="4.9" height="16.2"/>
					</g>
					<g id="XMLID_119_">
						<rect id="XMLID_633_" x="1085.2" y="724.2" class="st2" width="4.9" height="16.2"/>
					</g>
					<g id="XMLID_118_">
						<rect id="XMLID_631_" x="1074.4" y="724.2" class="st2" width="4.9" height="16.2"/>
					</g>
				</g>
			</g>
			<g id="XMLID_84_">
				<g id="XMLID_95_">
					<g id="XMLID_97_">
						<g id="XMLID_99_">
							<rect id="XMLID_627_" x="1079.1" y="681.5" class="st0" width="52.8" height="16.2"/>
						</g>
						<g id="XMLID_98_">
							<rect id="XMLID_625_" x="1131.9" y="681.5" class="st0" width="52.8" height="16.2"/>
						</g>
					</g>
					<g id="XMLID_96_">
						<rect id="XMLID_622_" x="1079.1" y="697.7" class="st1" width="105.6" height="5.2"/>
					</g>
				</g>
				<g id="XMLID_90_">
					<g id="XMLID_94_">
						<rect id="XMLID_619_" x="1179.8" y="681.5" class="st1" width="4.9" height="16.2"/>
					</g>
					<g id="XMLID_93_">
						<rect id="XMLID_617_" x="1169" y="681.5" class="st1" width="4.9" height="16.2"/>
					</g>
					<g id="XMLID_92_">
						<rect id="XMLID_615_" x="1158.1" y="681.5" class="st1" width="4.9" height="16.2"/>
					</g>
					<g id="XMLID_91_">
						<rect id="XMLID_613_" x="1147.3" y="681.5" class="st1" width="4.9" height="16.2"/>
					</g>
				</g>
				<g id="XMLID_85_">
					<g id="XMLID_89_">
						<rect id="XMLID_610_" x="1111.7" y="681.5" class="st2" width="4.9" height="16.2"/>
					</g>
					<g id="XMLID_88_">
						<rect id="XMLID_608_" x="1100.8" y="681.5" class="st2" width="4.9" height="16.2"/>
					</g>
					<g id="XMLID_87_">
						<rect id="XMLID_606_" x="1090" y="681.5" class="st2" width="4.9" height="16.2"/>
					</g>
					<g id="XMLID_86_">
						<rect id="XMLID_604_" x="1079.1" y="681.5" class="st2" width="4.9" height="16.2"/>
					</g>
				</g>
			</g>
		</g>
		<g id="XMLID_206_">
			<g id="XMLID_59_">
				<circle id="XMLID_249_" class="st0" cx="1138" cy="584.4" r="45.6"/>
				<path id="XMLID_261_" class="st0" d="M1138,638.9c-30.1,0-54.5-24.5-54.5-54.6s24.5-54.6,54.5-54.6c30.1,0,54.6,24.5,54.6,54.6
					S1168.1,638.9,1138,638.9z M1138,547.7c-20.2,0-36.7,16.5-36.7,36.7s16.5,36.7,36.7,36.7c20.2,0,36.7-16.5,36.7-36.7
					S1158.2,547.7,1138,547.7z"/>
			</g>
			<g id="XMLID_142_">
				<path id="XMLID_250_" class="st3" d="M1092.4,587.6c-1.8,0-3.2-1.4-3.2-3.2c0-26.9,21.9-48.8,48.8-48.8c1.8,0,3.2,1.4,3.2,3.2
					c0,1.8-1.4,3.2-3.2,3.2c-23.4,0-42.4,19-42.4,42.4C1095.6,586.2,1094.2,587.6,1092.4,587.6z"/>
			</g>
			<g id="XMLID_137_">
				<g id="XMLID_138_">
					<path id="XMLID_589_" class="st2" d="M1135.4,607.6c-7.1-0.6-12.3-3.3-15.9-7l5.2-7.3c2.5,2.6,6.1,5,10.7,5.8v-10.6
						c-6.9-1.8-14.5-4.3-14.5-13.5c0-6.8,5.4-12.6,14.5-13.5v-6.3h6.4v6.4c5.5,0.6,10,2.7,13.7,6l-5.3,7c-2.4-2.2-5.3-3.6-8.4-4.4
						v9.5c6.9,1.8,14.7,4.4,14.7,13.6c0,7.5-4.8,13.2-14.7,14.2v6.1h-6.4V607.6z M1135.4,578v-8.2c-3,0.4-4.7,2.1-4.7,4.4
						C1130.7,576.1,1132.6,577.2,1135.4,578z M1141.8,590.1v9c3.3-0.7,5-2.6,5-4.7C1146.8,592.1,1144.7,591,1141.8,590.1z"/>
				</g>
			</g>
			<g id="XMLID_1_">
				<circle id="XMLID_586_" class="st3" cx="1093.9" cy="596" r="3.8"/>
			</g>
		</g>
	</g>
	<g id="XMLID_43_">
		<g id="XMLID_42_">
			<g id="XMLID_144_">
				<g id="XMLID_145_">
					<rect id="XMLID_582_" x="1012.3" y="707.7" class="st4" width="4.4" height="78.8"/>
				</g>
				<g id="XMLID_146_">
					<rect id="XMLID_580_" x="1016.7" y="707.7" class="st5" width="11.4" height="78.8"/>
				</g>
			</g>
			<g id="XMLID_4_">
				<rect id="XMLID_577_" x="965.3" y="697" width="48.6" height="100.2"/>
			</g>
		</g>
		<g id="XMLID_10_">
			<g id="XMLID_13_">
				<path id="XMLID_574_" class="st6" d="M1068.5,708.1c19.9-0.5,39.1,10.7,39.1,10.7s-12.4-0.3,23.6,0s33.3,31.3,33.3,31.3
					s13.3-3.8,35.6-21c22.3-17.2,37.3-29,50.6-15.5c2.7,2.7,4.3,5.1,5.1,7.2c1.5-3.5,0.8-7.8-5.1-13.8
					c-13.3-13.4-28.3-1.7-50.6,15.5s-35.6,21-35.6,21s9.2-31.3-33.3-31.3c-36.1,0-23.6,0-23.6,0s-19.1-11.1-39.1-10.7
					s-36,10.1-36,10.1h-4.4v6.6h4.4C1032.5,718.2,1048.5,708.5,1068.5,708.1z"/>
			</g>
			<g id="XMLID_19_">
				<g id="XMLID_37_">
					<path id="XMLID_572_" class="st7" d="M1107.5,718.7c0,0-0.1,0-0.2-0.1C1103,718.6,1107.5,718.7,1107.5,718.7z"/>
				</g>
				<g id="XMLID_18_">
					<g id="XMLID_45_">
						<path id="XMLID_570_" class="st8" d="M1251.8,714.7c-0.1,0-8.2,7.5-10.6,12c-0.1,0.2-0.2,0.4-0.3,0.6c1.3,1.2,2.6,2.8,3.4,4.9
							c0.5-0.5,0.9-0.9,1.2-1.3c3-3.1,8.3-6.1,10.1-10.4C1255.1,718.9,1253.8,716.9,1251.8,714.7z"/>
					</g>
					<g id="XMLID_47_">
						<path id="XMLID_568_" class="st9" d="M1241,727.4c-0.8,2.2-0.5,5.3,0,8.1c1.3-1.3,2.5-2.4,3.4-3.2
							C1243.6,730.3,1242.3,728.6,1241,727.4z"/>
					</g>
				</g>
				<g id="XMLID_15_">
					<g id="XMLID_48_">
						<path id="XMLID_565_" class="st10" d="M1107.5,718.7c0,0-0.1,0-0.2-0.1C1103,718.6,1107.5,718.7,1107.5,718.7z"/>
					</g>
					<g id="XMLID_49_">
						<path id="XMLID_563_" class="st6" d="M1032.5,718.2h-4.4v63.1h7.5v-64.7C1033.6,717.5,1032.5,718.2,1032.5,718.2z"/>
					</g>
					<g id="XMLID_50_">
						<path id="XMLID_561_" class="st7" d="M1250.7,713.5c-13.3-13.4-28.3-1.7-50.6,15.5c-22.3,17.2-35.6,21-35.6,21
							s2.8-31-33.3-31.3c-14.3-0.1-21-0.1-23.8-0.1c0.1,0.1,0.2,0.1,0.2,0.1s-4.5-0.1-0.2-0.1c-2.1-1.2-20.1-11-38.9-10.5
							c-14.7,0.3-27.3,5.6-32.9,8.4v64.7h4.9c2.1,0,4.2,0.3,6.3,0.8l65.8,22c5,1.3,10.3,0.9,15.1-1.2l72.2-31.5
							c2.2-0.9,4.2-2.2,6-3.8c8.1-7.1,26.1-23.5,35.2-32.1c-0.6-3.1-0.9-6.6,0.2-8.7c2.4-4.6,10.5-12,10.6-12
							C1251.5,714.3,1251.1,713.9,1250.7,713.5z"/>
					</g>
				</g>
			</g>
		</g>
		<g id="XMLID_16_">
			<g id="XMLID_44_">
				<path id="XMLID_556_" class="st8" d="M1145.4,726.6c-3.6-0.7-6.6,0.9-8.5,3.6c2,2.1,3,4.8,3,7.2s-1,5-3,7.2
					c1.9,2.7,4.9,4.3,8.5,3.6c6.3-1.3,9.5-6.5,9.5-10.7S1151.7,727.9,1145.4,726.6z"/>
			</g>
			<g id="XMLID_46_">
				<path id="XMLID_554_" class="st9" d="M1137,730.2c-1.4,2-2.2,4.6-2.2,7.2c0,2.6,0.8,5.2,2.2,7.2c2-2.1,3-4.8,3-7.2
					S1139,732.3,1137,730.2z"/>
			</g>
		</g>
		<g id="XMLID_12_">
			<path id="XMLID_551_" class="st6" d="M1162.2,736.3c2.2,8.6-13.7,17.5-13.7,17.5s9.5-1.2,16-3.8c6.5-2.6,6.5-6.2,6.5-6.2
				l-5.5-0.1l-0.5,0.8l-0.5-0.3l-0.1-0.6l0-1.6l-0.7-3.1l-1.1-2.5L1162.2,736.3z"/>
		</g>
		<g id="XMLID_9_">
			<path id="XMLID_549_" class="st6" d="M1155.8,726.9c5.9,6,9,17.2-7.3,27l13.2-4.5c0,0,1.3-7.4,1.3-7.6c0-0.2,0-7.4,0-7.4l-5-5.9
				l-2.3-3.3L1155.8,726.9z"/>
		</g>
	</g>
</g>
<g id="XMLID_204_">
	<g id="XMLID_169_">
		<g id="XMLID_152_">
			<path id="XMLID_545_" class="st6" d="M636.3,804.9H668c0.8,0,1.6-0.6,1.7-1.5l2.5-16.9c0.1-0.9,1-1.6,2-1.4
				c12.4,2.4,24.5,2.7,34.8,0.5c1.4-0.3,2.9-0.6,4.4-1c1-0.2,1.9,0.4,2,1.4l2.6,17.4c0.1,0.8,0.8,1.5,1.7,1.5h31.6
				c0.9,0,1.6-0.6,1.7-1.5l5.2-37.4c0.1-0.6,0.4-1.1,0.9-1.5c22.1-15.2,38.8-38.5,31.6-71.6c-7-32.2-30.5-51.9-58.3-61.2
				c17.4,15.6,61.2,64.5-0.5,118.9c-24,21.2-61.8,24-102.1,18.1l4.8,34.6C634.7,804.3,635.5,804.9,636.3,804.9z"/>
		</g>
		<g id="XMLID_14_">
			<path id="XMLID_543_" class="st6" d="M652.4,657.8c0,0,8.9,0.5,15.4-6.9c0,0-3.2-39.4-32.4-38.4L652.4,657.8z"/>
		</g>
		<g id="XMLID_7_">
			<path id="XMLID_541_" class="st7" d="M635.4,640.6v-28.1c0,0,18.4,11.9,17,45.3L635.4,640.6z"/>
		</g>
		<g id="XMLID_147_">
			<g id="XMLID_150_">
				<path id="XMLID_537_" class="st6" d="M788.1,697.1c-1,0-2-0.6-2.5-1.5c-0.7-1.4-0.2-3.1,1.2-3.9c0.1,0,2.8-1.5,5.7-4.7
					c-1.2-0.9-2.3-2.2-3.4-3.9c-4.8-7.7-1.9-11.9-0.5-13.4c2.7-2.8,7.5-3.2,11.1-1.1c2.9,1.7,5.3,5.6,3.5,11.2
					c-0.2,0.7-0.5,1.4-0.8,2.1c3.9-2.5,8.1-7.8,10.3-11.5c0.8-1.4,2.6-1.8,3.9-1c1.4,0.8,1.8,2.6,1,3.9c-1,1.6-9.7,15.6-19.1,15.7
					c-0.1,0-0.2,0-0.3,0c-4,5.1-8.5,7.5-8.8,7.7C789,697,788.6,697.1,788.1,697.1z M794.7,673c-0.8,0-1.6,0.2-2.1,0.7
					c-1,1-0.5,3.5,1.3,6.3c0.7,1.1,1.3,1.8,1.9,2.3c0.7-1.3,1.4-2.7,1.9-4.3c0.5-1.5,0.7-3.5-1-4.5C796.2,673.2,795.4,673,794.7,673
					z"/>
			</g>
		</g>
		<g id="XMLID_156_">
			<g id="XMLID_157_">
				<path id="XMLID_534_" class="st7" d="M732.4,631.7c-3.3-1.1-6.6-2-9.9-2.8l-1.7,6.5c-21.9-6.6-47.1-2.2-47.1-2.2l-1.1-6.4
					c-2.7,0.4-5.3,0.9-7.9,1.4c-42.7,9.2-61.3,44.4-65.2,52.9c-0.5,1.2-1.6,2-2.9,2.2l-12.3,2.3c-1.9,0.4-3.2,2-3.2,3.9v17.9V729
					c0,2,1.4,3.6,3.3,3.9l15.8,2.5c1.3,0.2,2.3,1,2.9,2.1c5.6,11.1,14.6,20.6,25.3,28.3c0.7,0.5,1.1,1.2,1.2,2l0.1,1
					c40.3,5.9,78.1,3.1,102.1-18.1C793.6,696.2,749.8,647.3,732.4,631.7z"/>
			</g>
			<g id="XMLID_159_">
				<path id="XMLID_532_" class="st11" d="M720.7,635.4l1.7-6.5c-16.4-3.9-33.8-4.5-49.9-2.1l1.1,6.4
					C673.7,633.2,698.8,628.8,720.7,635.4z"/>
			</g>
		</g>
		<g id="XMLID_143_">
			<ellipse id="XMLID_529_" class="st11" cx="625.2" cy="679.5" rx="5" ry="8.6"/>
		</g>
	</g>
	<g id="XMLID_6_">
		<g id="XMLID_163_">
			<g id="XMLID_164_">
				<circle id="XMLID_526_" class="st0" cx="697.5" cy="605.5" r="19.1"/>
			</g>
			<g id="XMLID_166_">
				<path id="XMLID_522_" class="st0" d="M697.5,628.3c-12.6,0-22.8-10.2-22.8-22.8s10.2-22.8,22.8-22.8s22.8,10.2,22.8,22.8
					S710.1,628.3,697.5,628.3z M697.5,590.1c-8.5,0-15.3,6.9-15.3,15.3c0,8.5,6.9,15.3,15.3,15.3s15.3-6.9,15.3-15.3
					C712.8,597,706,590.1,697.5,590.1z"/>
			</g>
		</g>
		<g id="XMLID_162_">
			<g id="XMLID_165_">
				<path id="XMLID_519_" class="st3" d="M678.4,606.8c-0.7,0-1.3-0.6-1.3-1.3c0-11.3,9.2-20.4,20.4-20.4c0.7,0,1.3,0.6,1.3,1.3
					s-0.6,1.3-1.3,1.3c-9.8,0-17.7,8-17.7,17.7C679.8,606.2,679.2,606.8,678.4,606.8z"/>
			</g>
		</g>
		<g id="XMLID_151_">
			<g id="XMLID_155_">
				<g id="XMLID_175_">
					<path id="XMLID_513_" class="st2" d="M696.4,615.2c-3-0.3-5.1-1.4-6.6-2.9l2.2-3c1,1.1,2.6,2.1,4.5,2.4v-4.5
						c-2.9-0.7-6.1-1.8-6.1-5.6c0-2.8,2.3-5.3,6.1-5.7v-2.6h2.7v2.7c2.3,0.3,4.2,1.1,5.7,2.5l-2.2,2.9c-1-0.9-2.2-1.5-3.5-1.8v4
						c2.9,0.7,6.1,1.9,6.1,5.7c0,3.1-2,5.5-6.1,5.9v2.6h-2.7V615.2z M696.4,602.8v-3.4c-1.3,0.2-2,0.9-2,1.8
						C694.5,602,695.2,602.5,696.4,602.8z M699.1,607.8v3.8c1.4-0.3,2.1-1.1,2.1-2C701.2,608.7,700.3,608.2,699.1,607.8z"/>
				</g>
			</g>
		</g>
		<g id="XMLID_8_">
			<g id="XMLID_172_">
				<circle id="XMLID_509_" class="st3" cx="679" cy="610.3" r="1.6"/>
			</g>
		</g>
	</g>
	<g id="XMLID_170_">
		<g id="XMLID_183_">
			<g id="XMLID_187_">
				<circle id="XMLID_505_" class="st0" cx="724" cy="557.3" r="19.1"/>
			</g>
			<g id="XMLID_184_">
				<path id="XMLID_501_" class="st0" d="M715.4,578.4c-11.6-4.8-17.2-18.1-12.5-29.8s18.1-17.2,29.8-12.5s17.2,18.1,12.5,29.8
					S727,583.2,715.4,578.4z M729.8,543.1c-7.8-3.2-16.8,0.6-20,8.4s0.6,16.8,8.4,20c7.8,3.2,16.8-0.6,20-8.4
					C741.4,555.3,737.6,546.3,729.8,543.1z"/>
			</g>
		</g>
		<g id="XMLID_181_">
			<g id="XMLID_182_">
				<path id="XMLID_498_" class="st3" d="M705.8,551.3c-0.7-0.3-1-1.1-0.7-1.8c4.3-10.4,16.2-15.4,26.6-11.2c0.7,0.3,1,1.1,0.7,1.8
					c-0.3,0.7-1.1,1-1.8,0.7c-9.1-3.7-19.4,0.7-23.1,9.7C707.3,551.3,706.5,551.6,705.8,551.3z"/>
			</g>
		</g>
		<g id="XMLID_174_">
			<g id="XMLID_176_">
				<g id="XMLID_177_">
					<path id="XMLID_492_" class="st2" d="M719.3,565.8c-2.6-1.4-4.2-3.2-5-5.2l3.2-2c0.5,1.4,1.6,2.9,3.2,3.9l1.7-4.1
						c-2.4-1.8-4.9-4-3.5-7.5c1.1-2.6,4.1-4,7.8-2.9l1-2.4l2.5,1l-1,2.5c2,1.1,3.5,2.6,4.3,4.5l-3.2,1.9c-0.6-1.2-1.5-2.3-2.5-3
						l-1.5,3.7c2.4,1.8,5,4,3.5,7.6c-1.2,2.9-4,4.3-7.9,3.2l-1,2.4l-2.5-1L719.3,565.8z M724,554.4l1.3-3.2
						c-1.2-0.3-2.2,0.1-2.5,0.9C722.5,552.9,723,553.6,724,554.4z M724.6,560.1l-1.4,3.5c1.4,0.3,2.3-0.2,2.7-1
						C726.2,561.7,725.6,560.9,724.6,560.1z"/>
				</g>
			</g>
		</g>
		<g id="XMLID_171_">
			<g id="XMLID_173_">
				<circle id="XMLID_488_" class="st3" cx="705.1" cy="554.8" r="1.6"/>
			</g>
		</g>
	</g>
	<g id="XMLID_188_">
		<g id="XMLID_199_">
			<g id="XMLID_203_">
				<circle id="XMLID_484_" class="st0" cx="669.7" cy="561.9" r="19.1"/>
			</g>
			<g id="XMLID_200_">
				<path id="XMLID_480_" class="st0" d="M676.7,583.6c-12,3.8-24.9-2.8-28.7-14.8c-3.8-12,2.8-24.9,14.8-28.7
					c12-3.8,24.9,2.8,28.7,14.8C695.3,566.9,688.7,579.8,676.7,583.6z M665,547.3c-8.1,2.6-12.5,11.2-9.9,19.3
					c2.6,8.1,11.2,12.5,19.3,9.9c8.1-2.6,12.5-11.2,9.9-19.3C681.7,549.1,673.1,544.7,665,547.3z"/>
			</g>
		</g>
		<g id="XMLID_197_">
			<g id="XMLID_198_">
				<path id="XMLID_477_" class="st3" d="M652,569c-0.7,0.2-1.5-0.2-1.7-0.9c-3.4-10.7,2.5-22.2,13.2-25.7c0.7-0.2,1.5,0.2,1.7,0.9
					c0.2,0.7-0.2,1.5-0.9,1.7c-9.3,3-14.5,13-11.5,22.3C653.1,568,652.7,568.7,652,569z"/>
			</g>
		</g>
		<g id="XMLID_191_">
			<g id="XMLID_192_">
				<g id="XMLID_193_">
					<path id="XMLID_471_" class="st2" d="M671.6,571.4c-2.9,0.7-5.3,0.2-7.2-0.8l1.1-3.6c1.3,0.7,3.1,1.2,5,0.9l-1.4-4.2
						c-3,0.2-6.3,0.1-7.5-3.5c-0.9-2.7,0.5-5.7,4-7.2l-0.8-2.5l2.5-0.8l0.8,2.5c2.3-0.5,4.3-0.2,6.2,0.6l-1.2,3.5
						c-1.2-0.6-2.6-0.8-3.9-0.7l1.2,3.8c3-0.2,6.4-0.1,7.6,3.5c1,3-0.2,5.9-4,7.5l0.8,2.4l-2.5,0.8L671.6,571.4z M667.9,559.6
						l-1-3.3c-1.2,0.5-1.6,1.4-1.3,2.3C665.8,559.5,666.6,559.7,667.9,559.6z M672,563.6l1.2,3.6c1.2-0.7,1.7-1.7,1.4-2.5
						C674.2,563.8,673.2,563.6,672,563.6z"/>
				</g>
			</g>
		</g>
		<g id="XMLID_189_">
			<g id="XMLID_190_">
				<circle id="XMLID_467_" class="st3" cx="653.6" cy="572.1" r="1.6"/>
			</g>
		</g>
	</g>
</g>
<g id="XMLID_244_">
	<g id="XMLID_243_">
		<g id="XMLID_251_">
			<g id="XMLID_287_">
				<path id="XMLID_462_" class="st12" d="M250.3,770.9c4.4-8,6.7-16.9,6.7-26.1c0-28.9-22.8-52.6-51.3-54.1v-23.1
					c27.6-1.4,49.8-23.6,51.2-51.2h118.9c1.4,26.6,22,48.3,48.6,51v23.5c-27.5,2.8-48.6,25.9-48.6,53.9c0,9.2,2.3,18.2,6.7,26.1
					H250.3z"/>
			</g>
			<g id="XMLID_262_">
				<path id="XMLID_458_" class="st13" d="M373.2,619.3c2.6,26,22.5,46.9,48.4,50.7v18.4c-27.7,4-48.6,27.8-48.6,56.4
					c0,8.1,1.7,16,5,23.3h-123c3.3-7.3,5-15.2,5-23.3c0-29.5-22.5-53.8-51.3-56.7v-17.8c26.9-2.7,48.3-24.1,51-51H373.2
					 M378.6,613.6H254.2c0,28.3-23,51.3-51.3,51.3v28.6c28.3,0,51.3,23,51.3,51.3c0,10.8-3.3,20.7-9,29h142.4c-5.7-8.2-9-18.2-9-29
					c0-27.4,21.5-49.8,48.6-51.2v-28.7C400.2,663.5,378.6,641.1,378.6,613.6L378.6,613.6z"/>
			</g>
		</g>
		<g id="XMLID_252_">
			<path id="XMLID_455_" class="st13" d="M254.2,613.6h-51.3v51.3C231.2,664.9,254.2,641.9,254.2,613.6z"/>
		</g>
		<g id="XMLID_253_">
			<path id="XMLID_453_" class="st13" d="M202.9,693.5v80.3h42.3c5.7-8.2,9-18.2,9-29C254.2,716.5,231.2,693.5,202.9,693.5z"/>
		</g>
		<g id="XMLID_254_">
			<path id="XMLID_451_" class="st13" d="M427.3,664.8v-51.2h-48.6C378.6,641.1,400.2,663.5,427.3,664.8z"/>
		</g>
		<g id="XMLID_255_">
			<path id="XMLID_449_" class="st13" d="M427.3,693.6c-27.1,1.4-48.6,23.8-48.6,51.2c0,10.8,3.3,20.7,9,29h39.7V693.6z"/>
		</g>
	</g>
	<g id="XMLID_2_">
		<circle id="XMLID_446_" class="st13" cx="315.1" cy="683.4" r="35.2"/>
	</g>
	<g id="XMLID_132_">
		<g id="XMLID_133_">
			<path id="XMLID_441_" class="st14" d="M312.5,705.9c-6.9-0.6-11.9-3.2-15.4-6.8l5-7.1c2.4,2.6,6,4.8,10.4,5.6v-10.3
				c-6.7-1.7-14.1-4.2-14.1-13.1c0-6.6,5.2-12.2,14.1-13.2V655h6.2v6.2c5.3,0.6,9.8,2.6,13.3,5.8l-5.2,6.8c-2.4-2.2-5.2-3.5-8.1-4.3
				v9.2c6.7,1.7,14.3,4.3,14.3,13.2c0,7.3-4.7,12.8-14.3,13.8v6h-6.2V705.9z M312.5,677.2v-8c-2.9,0.4-4.6,2-4.6,4.3
				C308,675.3,309.8,676.4,312.5,677.2z M318.8,688.9v8.8c3.2-0.7,4.8-2.6,4.8-4.6C323.6,690.9,321.6,689.8,318.8,688.9z"/>
		</g>
	</g>
	<g id="XMLID_246_">
		<rect id="XMLID_438_" x="202.9" y="735.3" class="st13" width="224.4" height="23.5"/>
	</g>
	<g id="XMLID_247_">
		<rect id="XMLID_436_" x="202.9" y="758.8" class="st15" width="224.4" height="15"/>
	</g>
	<g id="XMLID_245_">
		<rect id="XMLID_434_" x="202.9" y="743.6" class="st15" width="224.4" height="15"/>
	</g>
	<g id="XMLID_212_">
		<g id="XMLID_215_">
			<path id="XMLID_432_" class="st1" d="M261.9,779.5c-5.1-3.1-12.8-5.1-21.5-5.1s-16.5,2-21.5,5.1h-6.1v8.6
				c0,7.6,12.4,13.7,27.6,13.7S268,795.6,268,788v-8.6H261.9z"/>
		</g>
		<g id="XMLID_214_">
			<ellipse id="XMLID_430_" class="st0" cx="240.4" cy="778.5" rx="27.6" ry="13.7"/>
		</g>
	</g>
	<g id="XMLID_216_">
		<g id="XMLID_218_">
			<path id="XMLID_427_" class="st1" d="M261.9,761c-5.1-3.1-12.8-5.1-21.5-5.1s-16.5,2-21.5,5.1h-6.1v8.6
				c0,7.6,12.4,13.7,27.6,13.7s27.6-6.1,27.6-13.7V761H261.9z"/>
		</g>
		<g id="XMLID_217_">
			<ellipse id="XMLID_425_" class="st0" cx="240.4" cy="760.1" rx="27.6" ry="13.7"/>
		</g>
	</g>
	<g id="XMLID_219_">
		<g id="XMLID_221_">
			<path id="XMLID_422_" class="st1" d="M258.1,742.6c-5.1-3.1-12.8-5.1-21.5-5.1s-16.5,2-21.5,5.1h-6.1v8.6
				c0,7.6,12.4,13.7,27.6,13.7s27.6-6.1,27.6-13.7v-8.6H258.1z"/>
		</g>
		<g id="XMLID_220_">
			<ellipse id="XMLID_420_" class="st0" cx="236.6" cy="741.6" rx="27.6" ry="13.7"/>
		</g>
	</g>
	<g id="XMLID_222_">
		<g id="XMLID_224_">
			<path id="XMLID_417_" class="st1" d="M261.9,722.5c-5.1-3.1-12.8-5.1-21.5-5.1s-16.5,2-21.5,5.1h-6.1v8.6
				c0,7.6,12.4,13.7,27.6,13.7s27.6-6.1,27.6-13.7v-8.6H261.9z"/>
		</g>
		<g id="XMLID_223_">
			<ellipse id="XMLID_415_" class="st0" cx="240.4" cy="721.6" rx="27.6" ry="13.7"/>
		</g>
	</g>
	<g id="XMLID_210_">
		<g id="XMLID_213_">
			<path id="XMLID_412_" class="st1" d="M264.2,704.1c-5.1-3.1-12.8-5.1-21.5-5.1c-8.7,0-16.5,2-21.5,5.1h-6.1v8.6
				c0,7.6,12.4,13.7,27.6,13.7s27.6-6.1,27.6-13.7v-8.6H264.2z"/>
		</g>
		<g id="XMLID_148_">
			<ellipse id="XMLID_410_" class="st0" cx="242.7" cy="703.1" rx="27.6" ry="13.7"/>
		</g>
	</g>
	<g id="XMLID_242_">
		<g id="XMLID_211_">
			<g id="XMLID_226_">
				<path id="XMLID_407_" class="st1" d="M326.9,779.5c-5.1-3.1-12.8-5.1-21.5-5.1c-8.7,0-16.5,2-21.5,5.1h-6.1v8.6
					c0,7.6,12.4,13.7,27.6,13.7S333,795.6,333,788v-8.6H326.9z"/>
			</g>
			<g id="XMLID_225_">
				<ellipse id="XMLID_405_" class="st0" cx="305.4" cy="778.5" rx="27.6" ry="13.7"/>
			</g>
		</g>
		<g id="XMLID_239_">
			<g id="XMLID_241_">
				<path id="XMLID_402_" class="st1" d="M347,768.8c-5.1-3.1-12.8-5.1-21.5-5.1c-8.7,0-16.5,2-21.5,5.1h-6.1v8.6
					c0,7.6,12.4,13.7,27.6,13.7s27.6-6.1,27.6-13.7v-8.6H347z"/>
			</g>
			<g id="XMLID_240_">
				<ellipse id="XMLID_400_" class="st0" cx="325.5" cy="767.9" rx="27.6" ry="13.7"/>
			</g>
		</g>
	</g>
	<g id="XMLID_236_">
		<g id="XMLID_238_">
			<path id="XMLID_396_" class="st1" d="M198.2,779.5c-5.1-3.1-12.8-5.1-21.5-5.1s-16.5,2-21.5,5.1H149v8.6
				c0,7.6,12.4,13.7,27.6,13.7s27.6-6.1,27.6-13.7v-8.6H198.2z"/>
		</g>
		<g id="XMLID_237_">
			<ellipse id="XMLID_394_" class="st0" cx="176.7" cy="778.5" rx="27.6" ry="13.7"/>
		</g>
	</g>
	<g id="XMLID_233_">
		<g id="XMLID_235_">
			<path id="XMLID_391_" class="st1" d="M195.1,761c-5.1-3.1-12.8-5.1-21.5-5.1s-16.5,2-21.5,5.1H146v8.6c0,7.6,12.4,13.7,27.6,13.7
				s27.6-6.1,27.6-13.7V761H195.1z"/>
		</g>
		<g id="XMLID_234_">
			<ellipse id="XMLID_389_" class="st0" cx="173.6" cy="760.1" rx="27.6" ry="13.7"/>
		</g>
	</g>
	<g id="XMLID_230_">
		<g id="XMLID_232_">
			<path id="XMLID_386_" class="st1" d="M192.3,742.6c-5.1-3.1-12.8-5.1-21.5-5.1s-16.5,2-21.5,5.1h-6.1v8.6
				c0,7.6,12.4,13.7,27.6,13.7s27.6-6.1,27.6-13.7v-8.6H192.3z"/>
		</g>
		<g id="XMLID_231_">
			<ellipse id="XMLID_384_" class="st0" cx="170.8" cy="741.6" rx="27.6" ry="13.7"/>
		</g>
	</g>
	<g id="XMLID_227_">
		<g id="XMLID_229_">
			<path id="XMLID_381_" class="st1" d="M199.8,725.7c-5.1-3.1-12.8-5.1-21.5-5.1s-16.5,2-21.5,5.1h-6.1v8.6
				c0,7.6,12.4,13.7,27.6,13.7s27.6-6.1,27.6-13.7v-8.6H199.8z"/>
		</g>
		<g id="XMLID_228_">
			<ellipse id="XMLID_379_" class="st0" cx="178.3" cy="724.8" rx="27.6" ry="13.7"/>
		</g>
	</g>
</g>
<g id="XMLID_248_">
	<g id="XMLID_297_">
		<path id="XMLID_300_" class="st13" d="M216.6,275.1c0,0,37.1-23.7,38.1-24.9s44.6-8.7,44.6-8.7l22,2.6l20.7,6.1v55.4l53.6,7.5
			v89.2c18.8-23.9,30.1-54,30.1-86.8c0.1-77.5-62.7-140.4-140.2-140.4C207.8,175,145,237.8,144.9,315.3c0,44,20.2,83.2,51.8,109
			l0-106.7L216.6,275.1z"/>
		<path id="XMLID_301_" class="st15" d="M395.4,402.3v-89.2l-53.6-7.5v-55.4l-20.7-6.1l-22-2.6c0,0-43.6,7.5-44.6,8.7
			s-38.1,24.9-38.1,24.9l-19.8,42.4l0,106.7c24.1,19.6,54.9,31.4,88.4,31.4C329.9,455.8,369.7,434.9,395.4,402.3z"/>
	</g>
	<g id="XMLID_281_">
		<g id="XMLID_292_">
			<path id="XMLID_293_" class="st14" d="M280.5,361.3c-13.7-1.2-23.7-6.4-30.7-13.5l10-14c4.8,5.1,11.8,9.6,20.7,11.2l0-20.5
				c-13.4-3.4-28-8.3-27.9-26c0-13.1,10.4-24.3,28-26.1l0-12.1l12.4,0l0,12.4c10.5,1.2,19.4,5.2,26.4,11.6L309,297.6
				c-4.7-4.3-10.3-7-16.1-8.5l0,18.3c13.4,3.4,28.3,8.6,28.3,26.3c0,14.4-9.4,25.5-28.4,27.4l0,11.8l-12.4,0L280.5,361.3z
				 M280.6,304.2l0-15.9c-5.9,0.8-9.1,4-9.1,8.4C271.5,300.6,275.1,302.7,280.6,304.2z M292.9,327.5l0,17.4c6.4-1.3,9.6-5.1,9.6-9.1
				C302.5,331.6,298.5,329.4,292.9,327.5z"/>
		</g>
		<g id="XMLID_289_">
			<path id="XMLID_291_" class="st14" d="M351.5,316.3L351.5,316.3c0,17.6-6.9,34.2-19.3,46.6c-12.5,12.5-29.6,19.5-47.3,19.3
				c-17.6-0.2-34.1-7.2-46.5-19.8c-12.2-12.5-19-29.4-18.8-46.8c0.2-17.1,6.9-33.3,18.9-45.5c12.2-12.4,28.9-19.5,46.3-19.7
				c14.7-0.1,28.6,4.5,40.1,13.1c1.5,1.1,3.6,1,4.9-0.3l11-11c1.6-1.6,1.4-4.2-0.3-5.6c-15.4-12.1-34.8-19.3-56-19.1
				c-49,0.5-88.6,41.1-87.9,90.2c0.7,48.4,40.2,87.5,88.8,87.5c49.1,0,88.9-39.7,88.9-88.8l0,0L351.5,316.3z"/>
		</g>
		<path id="XMLID_288_" class="st14" d="M358.7,269.8c1.6-2.1,4.8-2.1,6.3,0l15.5,21.3l14.1,19.4c1.9,2.6,0,6.2-3.2,6.2l-29.7,0
			l-29.7,0c-3.2,0-5.1-3.7-3.2-6.2l14.2-19.4L358.7,269.8z"/>
	</g>
</g>
<g id="XMLID_5_">
	<g id="XMLID_149_">
		<path id="XMLID_299_" class="st13" d="M839.9,315.4c0-77.5-62.8-140.3-140.3-140.3s-140.3,62.8-140.3,140.3
			c0,38,15.1,72.5,39.6,97.7V292.4l90.3-35.3l7.5-1.8l6.4,2.4V288l58.2,20.3l36.1,5.8V416C823.6,390.5,839.9,354.9,839.9,315.4z"/>
		<path id="XMLID_302_" class="st15" d="M761.2,308.3L703,288v-30.3l-6.4-2.4l-7.5,1.8l-90.3,35.3v120.7
			c25.5,26.3,61.2,42.6,100.7,42.6c38,0,72.5-15.1,97.8-39.7V314.1L761.2,308.3z"/>
	</g>
	<g id="XMLID_282_">
		
			<ellipse id="XMLID_17_" transform="matrix(0.8991 0.4377 -0.4377 0.8991 207.1293 -297.856)" class="st14" cx="749.7" cy="300.4" rx="50.4" ry="33.4"/>
		
			<ellipse id="XMLID_257_" transform="matrix(0.8991 0.4377 -0.4377 0.8991 205.7361 -299.4592)" class="st13" cx="752.5" cy="296.6" rx="40.3" ry="21.5"/>
		<g id="XMLID_258_">
			<path id="XMLID_259_" class="st14" d="M771.8,305.8c-2.2,2.8-5.6,3.9-9.4,3.9l-4.5-5.5c2.7,0.1,5.5-0.5,7.2-2.2l-8.5-4.7
				c-3.1,2.3-6.9,4.5-14.2,0.4c-5.4-3-8.7-7.9-7.3-12.3l-5-2.7l1.5-2.8l5.1,2.8c1.8-2.1,4.6-3.2,8.1-3.4l4.3,5.4
				c-2.4,0.1-4.2,0.7-5.5,1.7l7.6,4.2c3.1-2.3,7.1-4.5,14.4-0.5c6,3.3,9.3,7.9,7.8,12.7l4.9,2.7l-1.5,2.8L771.8,305.8z M748.2,292.8
				l-6.5-3.6c-0.4,1.5,0.5,3,2.3,4C745.6,294,746.9,293.7,748.2,292.8z M759.4,295.3l7.2,4c0.3-1.7-0.9-3.3-2.5-4.3
				C762.2,294,760.8,294.4,759.4,295.3z"/>
		</g>
	</g>
	<g id="XMLID_285_">
		
			<ellipse id="XMLID_273_" transform="matrix(0.831 -0.5562 0.5562 0.831 -43.0535 408.5418)" class="st14" cx="650.9" cy="275.1" rx="57.3" ry="38"/>
		
			<ellipse id="XMLID_272_" transform="matrix(0.831 -0.5562 0.5562 0.831 -40.6839 406.5097)" class="st13" cx="648.8" cy="270.2" rx="45.8" ry="24.4"/>
		<g id="XMLID_267_">
			<path id="XMLID_268_" class="st14" d="M668.8,256.6c1.5,3.8,0.7,7.7-1.6,11.5l-8,1.3c1.6-2.6,2.6-5.6,2-8.3l-9.4,5.6
				c0.5,4.3,0.4,9.4-7.7,14.2c-6,3.6-12.7,4-16.2,0.1l-5.5,3.3l-1.9-3.1l5.7-3.4c-1.1-3-0.5-6.3,1.3-9.9l7.8-1.1
				c-1.3,2.4-1.7,4.5-1.4,6.4l8.4-5c-0.5-4.3-0.4-9.5,7.8-14.4c6.6-4,13.1-4.6,16.9-0.4l5.4-3.3l1.9,3.1L668.8,256.6z M642.6,272.2
				l-7.3,4.4c1.2,1.3,3.2,1.2,5.3,0C642.3,275.5,642.7,274,642.6,272.2z M651.4,262.7l8-4.8c-1.6-1.3-3.8-1-5.6,0.1
				C651.8,259.2,651.4,260.8,651.4,262.7z"/>
		</g>
	</g>
	<g id="XMLID_11_">
		
			<ellipse id="XMLID_280_" transform="matrix(0.508 0.8614 -0.8614 0.508 651.2031 -425.3807)" class="st14" cx="697.9" cy="357.3" rx="46.7" ry="31"/>
		<g id="XMLID_284_">
			
				<ellipse id="XMLID_279_" transform="matrix(0.508 0.8614 -0.8614 0.508 651.9042 -429.6705)" class="st13" cx="702.1" cy="355.8" rx="37.3" ry="19.9"/>
			<g id="XMLID_274_">
				<path id="XMLID_275_" class="st14" d="M712.3,372.8c-3.1,1.1-6.3,0.2-9.3-1.8l-0.7-6.5c2.1,1.4,4.5,2.4,6.7,2l-4.2-7.9
					c-3.5,0.2-7.6-0.1-11.2-6.9c-2.7-5.1-2.7-10.6,0.7-13.2l-2.4-4.7l2.6-1.4l2.5,4.8c2.5-0.7,5.2-0.2,8,1.5l0.5,6.4
					c-1.9-1.1-3.6-1.6-5.1-1.5l3.7,7.1c3.5-0.2,7.8,0.2,11.4,7c2.9,5.6,3.2,10.9-0.5,13.8l2.4,4.6l-2.6,1.4L712.3,372.8z
					 M700.7,350.7l-3.2-6.1c-1.1,1-1.1,2.6-0.2,4.3C698,350.3,699.2,350.7,700.7,350.7z M708,358.3l3.5,6.7c1.1-1.2,1-3,0.2-4.6
					C710.9,358.8,709.6,358.4,708,358.3z"/>
			</g>
		</g>
	</g>
</g>
<g id="XMLID_260_">
	<g id="XMLID_209_">
		<path id="XMLID_303_" class="st13" d="M1251.2,315.4c0-77.5-62.8-140.3-140.3-140.3s-140.3,62.8-140.3,140.3
			c0,47.4,23.5,89.3,59.4,114.7v-42.8l3.5-1.1v-61.2l43-24.9l34.4-20.8l3.8-9.1l-3.8-8.5v-14l5.9-8.2l8.3-5.4l9.4-1.6l12.5,1.3
			l8.1,5.7l7.2,12.9l4.5,3.6v26.6l5.2,25.7l11.7,40.4v36.6h8v44.9C1227.7,404.7,1251.2,362.8,1251.2,315.4z"/>
		<path id="XMLID_304_" class="st15" d="M1183.8,385.2v-36.6l-11.7-40.4l-5.2-25.7v-26.6l-4.5-3.6l-7.2-12.9l-8.1-5.7l-12.5-1.3
			l-9.4,1.6l-8.3,5.4l-5.9,8.2v14l3.8,8.5l-3.8,9.1l-34.4,20.8l-43,24.9v61.2l-3.5,1.1v42.8c22.9,16.2,50.8,25.6,80.9,25.6
			c30.1,0,58-9.5,80.9-25.6v-44.9H1183.8z"/>
	</g>
	<g id="XMLID_290_">
		<g id="XMLID_29_">
			<path id="XMLID_3_" class="st14" d="M1180.9,372.2h-12.6c-1.6,0-2.9-1.3-2.9-2.9v-88.8c0-1.6,1.3-2.9,2.9-2.9h12.6
				c1.6,0,2.9,1.3,2.9,2.9v88.8C1183.8,370.9,1182.5,372.2,1180.9,372.2z"/>
			<path id="XMLID_21_" class="st14" d="M1155.5,372.2H1143c-1.6,0-2.9-1.3-2.9-2.9v-75.4c0-1.6,1.3-2.9,2.9-2.9h12.6
				c1.6,0,2.9,1.3,2.9,2.9v75.4C1158.5,370.9,1157.1,372.2,1155.5,372.2z"/>
			<path id="XMLID_22_" class="st14" d="M1130.2,372.2h-12.6c-1.6,0-2.9-1.3-2.9-2.9v-61.7c0-1.6,1.3-2.9,2.9-2.9h12.6
				c1.6,0,2.9,1.3,2.9,2.9v61.7C1133.1,370.9,1131.8,372.2,1130.2,372.2z"/>
			<path id="XMLID_23_" class="st14" d="M1104.8,372.2h-12.6c-1.6,0-2.9-1.3-2.9-2.9v-41.5c0-1.6,1.3-2.9,2.9-2.9h12.6
				c1.6,0,2.9,1.3,2.9,2.9v41.5C1107.7,370.9,1106.4,372.2,1104.8,372.2z"/>
			<path id="XMLID_24_" class="st14" d="M1079.4,372.2h-12.6c-1.6,0-2.9-1.3-2.9-2.9v-29.2c0-1.6,1.3-2.9,2.9-2.9h12.6
				c1.6,0,2.9,1.3,2.9,2.9v29.2C1082.4,370.9,1081.1,372.2,1079.4,372.2z"/>
			<path id="XMLID_25_" class="st14" d="M1054.1,372.2h-12.6c-1.6,0-2.9-1.3-2.9-2.9v-19.7c0-1.6,1.3-2.9,2.9-2.9h12.6
				c1.6,0,2.9,1.3,2.9,2.9v19.7C1057,370.9,1055.7,372.2,1054.1,372.2z"/>
		</g>
		<path id="XMLID_28_" class="st14" d="M1189,392.1h-156.2c-1.5,0-2.8-1.2-2.8-2.8v-8.4c0-1.5,1.2-2.8,2.8-2.8H1189
			c1.5,0,2.8,1.2,2.8,2.8v8.4C1191.8,390.9,1190.5,392.1,1189,392.1z"/>
		<g id="XMLID_256_">
			<g id="XMLID_30_">
				<g id="XMLID_20_">
					<path id="XMLID_35_" class="st14" d="M1036.1,331.3c-4.3-5.2-3.4-12.8,2.1-16.9l47.9-35.9c5.5-4.1,13.5-3.2,17.8,2
						c4.3,5.2,3.4,12.8-2.1,16.9l-47.9,35.9C1048.5,337.4,1040.5,336.5,1036.1,331.3z"/>
				</g>
				<g id="XMLID_27_">
					<path id="XMLID_31_" class="st14" d="M1118.3,275.9l-30.6,26.7c-3.4,2.9-8.6,2.7-11.7-0.5c-3.1-3.2-2.9-8.2,0.5-11.2
						c0.3-0.3,0.6-0.5,1-0.7l34.5-22.1c2.4-1.5,5.6-0.9,7.2,1.3C1120.5,271.6,1120.2,274.3,1118.3,275.9z"/>
				</g>
				<g id="XMLID_26_">
					<path id="XMLID_32_" class="st14" d="M1112.9,273.7c-10.3-12.4-8.1-30.5,5-40.3s32.2-7.7,42.5,4.7c10.3,12.4,8.1,30.5-5,40.3
						C1142.3,288.3,1123.2,286.1,1112.9,273.7z M1153.6,243.2c-7.4-8.9-21.1-10.4-30.4-3.4c-9.4,7-11,20-3.6,28.9
						c7.4,8.9,21.1,10.4,30.4,3.4C1159.4,265,1161,252.1,1153.6,243.2z"/>
				</g>
			</g>
			<g id="XMLID_36_">
				<path id="XMLID_38_" class="st14" d="M1134.5,269c-4.2-0.3-7.3-1.9-9.4-4l3.1-4.1c1.5,1.5,3.6,2.8,6.4,3.3v-6
					c-4.1-1-8.6-2.4-8.6-7.6c0-3.8,3.2-7.1,8.6-7.6v-3.5h3.8v3.6c3.2,0.3,6,1.5,8.1,3.4l-3.2,4c-1.4-1.3-3.2-2.1-5-2.5v5.4
					c4.1,1,8.7,2.5,8.7,7.7c0,4.2-2.9,7.4-8.7,8v3.5h-3.8V269z M1134.5,252.3v-4.6c-1.8,0.2-2.8,1.2-2.8,2.5
					C1131.7,251.2,1132.8,251.8,1134.5,252.3z M1138.3,259.1v5.1c2-0.4,3-1.5,3-2.7C1141.3,260.3,1140,259.6,1138.3,259.1z"/>
			</g>
		</g>
	</g>
</g>
</svg>
